<?xml version="1.0" encoding="utf-8"?>
<!-- Generator: Adobe Illustrator 25.3.0, SVG Export Plug-In . SVG Version: 6.00 Build 0)  -->
<svg version="1.1" id="Calque_1" xmlns="http://www.w3.org/2000/svg" xmlns:xlink="http://www.w3.org/1999/xlink" x="0px" y="0px"
	 viewBox="0 0 342.55 368.59" style="enable-background:new 0 0 342.55 368.59;" xml:space="preserve">
<style type="text/css">
	.st0{fill:#92ABDA;}
</style>
<g>
	<path class="st0" d="M105.64,263.57v-24.47c0-4.21-3.41-7.63-7.63-7.63c-4.21,0-7.63,3.41-7.63,7.63v24.47
		c-6.73,2.95-11.44,9.67-11.44,17.47c0,10.51,8.55,19.06,19.06,19.06s19.06-8.55,19.06-19.06
		C117.08,273.23,112.37,266.51,105.64,263.57L105.64,263.57z M105.64,263.57"/>
	<path class="st0" d="M128.52,246.93V113.28c0-16.82-13.68-30.5-30.5-30.5s-30.5,13.68-30.5,30.5v133.65
		c-9.74,8.67-15.25,20.9-15.25,34.1c0,25.23,20.52,45.75,45.75,45.75s45.75-20.52,45.75-45.75
		C143.77,267.83,138.26,255.6,128.52,246.93L128.52,246.93z M98.02,311.53c-16.82,0-30.5-13.68-30.5-30.5
		c0-9.68,4.45-18.58,12.2-24.4c1.92-1.44,3.05-3.7,3.05-6.1V113.28c0-8.41,6.84-15.25,15.25-15.25s15.25,6.84,15.25,15.25v137.25
		c0,2.4,1.13,4.66,3.05,6.1c7.76,5.83,12.2,14.72,12.2,24.4C128.52,297.85,114.84,311.53,98.02,311.53L98.02,311.53z M98.02,311.53"
		/>
	<path class="st0" d="M288.64,151.41h-12.09l6.05-6.05c2.98-2.98,2.98-7.81,0-10.78c-2.98-2.98-7.8-2.98-10.78,0l-16.83,16.83h-9.39
		c-1.21-4.05-3.36-7.7-6.19-10.7l4.7-8.15l22.99-6.16c4.07-1.09,6.48-5.27,5.39-9.34c-1.09-4.07-5.27-6.48-9.34-5.39l-8.26,2.21
		l6.05-10.47c2.1-3.65,0.85-8.31-2.79-10.42c-3.65-2.1-8.31-0.86-10.42,2.79l-6.04,10.47L239.47,98c-1.09-4.07-5.27-6.48-9.34-5.39
		c-4.07,1.09-6.48,5.27-5.39,9.34l6.16,22.99l-4.7,8.14c-4.09-0.97-8.27-0.97-12.36,0l-4.7-8.14l6.16-22.99
		c1.09-4.07-1.33-8.25-5.39-9.34c-4.07-1.09-8.25,1.32-9.34,5.39l-2.21,8.26l-6.04-10.47c-2.11-3.65-6.77-4.9-10.42-2.79
		c-3.65,2.11-4.89,6.77-2.79,10.42l6.05,10.47l-8.26-2.21c-4.07-1.09-8.25,1.32-9.34,5.39c-1.09,4.07,1.33,8.25,5.39,9.34
		l22.99,6.16l4.71,8.15c-2.83,3-4.98,6.64-6.19,10.69h-9.39l-16.83-16.83c-2.98-2.98-7.81-2.98-10.78,0
		c-2.98,2.98-2.98,7.81,0,10.78l6.05,6.05h-12.09c-4.21,0-7.63,3.41-7.63,7.63s3.41,7.63,7.63,7.63h12.09l-6.05,6.05
		c-4.82,4.82-1.34,13.02,5.39,13.02c1.95,0,3.9-0.74,5.39-2.23l16.83-16.83h9.39c1.21,4.05,3.36,7.7,6.19,10.7l-4.7,8.15
		l-22.99,6.16c-4.07,1.09-6.48,5.27-5.39,9.34c1.09,4.07,5.27,6.48,9.34,5.39l8.26-2.21l-6.05,10.47
		c-2.95,5.11,0.79,11.44,6.6,11.44c2.64,0,5.2-1.37,6.61-3.82l6.04-10.47l2.21,8.26c0.91,3.41,3.99,5.65,7.36,5.65
		c5.01,0,8.67-4.76,7.37-9.6l-6.16-22.99l4.7-8.14c4.09,0.97,8.27,0.97,12.36,0l4.7,8.14l-6.16,22.99c-1.3,4.84,2.36,9.6,7.37,9.6
		c3.37,0,6.45-2.25,7.36-5.65l2.21-8.26l6.04,10.47c1.42,2.45,3.98,3.82,6.61,3.82c5.8,0,9.55-6.32,6.6-11.44l-6.05-10.47l8.26,2.21
		c4.07,1.09,8.25-1.32,9.34-5.39c1.09-4.07-1.33-8.25-5.39-9.34l-22.99-6.16l-4.71-8.15c2.83-3,4.98-6.64,6.19-10.7h9.39
		l16.83,16.83c1.49,1.49,3.44,2.23,5.39,2.23c6.73,0,10.21-8.2,5.39-13.02l-6.04-6.05h12.09c4.21,0,7.63-3.41,7.63-7.63
		S292.86,151.41,288.64,151.41L288.64,151.41z M208.58,159.03c0-6.31,5.13-11.44,11.44-11.44c6.31,0,11.44,5.13,11.44,11.44
		s-5.13,11.44-11.44,11.44C213.71,170.47,208.58,165.34,208.58,159.03L208.58,159.03z M208.58,159.03"/>
</g>
</svg>
