<?xml version="1.0" encoding="utf-8"?>
<!-- Generator: Adobe Illustrator 25.3.0, SVG Export Plug-In . SVG Version: 6.00 Build 0)  -->
<svg version="1.1" id="Calque_1" xmlns="http://www.w3.org/2000/svg" xmlns:xlink="http://www.w3.org/1999/xlink" x="0px" y="0px"
	 viewBox="0 0 342.55 368.59" style="enable-background:new 0 0 342.55 368.59;" xml:space="preserve">
<style type="text/css">
	.st0{fill:#92ABDA;}
	.st1{fill:none;}
</style>
<g>
	<polygon class="st0" points="220.92,173.96 209.72,193.57 232.13,193.57 220.92,173.96 	"/>
	<path class="st0" d="M315.76,120.62l-51.29-14.53c-60.39-14.62-124.57-14.62-185.8,0.05l-51.11,14.48
		c-2.44,0.69-3.96,3.13-3.5,5.62l29.54,161.75c0.26,1.42,1.13,2.66,2.38,3.38c0.76,0.44,1.61,0.66,2.47,0.66
		c0.55,0,1.11-0.09,1.64-0.29c22.98-8.15,46.6-13.71,70.41-16.71c-2.24-10.56-7.1-22.3-16.74-34.03
		c-12.02-14.6-14.97-29.85-15.67-37.58h-15c-1.75,0-3.37-0.94-4.26-2.45c-0.88-1.52-0.89-3.39-0.01-4.91l19.69-34.46
		c1.75-3.07,6.8-3.07,8.55,0l19.69,34.46c0.87,1.52,0.86,3.4-0.01,4.91c-0.89,1.52-2.51,2.45-4.26,2.45H108
		c0.75,6.65,3.49,19.33,13.37,31.33c11.11,13.5,16.68,27.04,19.13,39.21c16.21-1.55,32.45-1.93,48.62-1.11
		c-2.44-9.98-7.31-20.94-16.29-31.85c-12.02-14.6-14.97-29.85-15.67-37.58h-14.99c-1.75,0-3.37-0.94-4.26-2.45
		c-0.88-1.52-0.89-3.39-0.01-4.91l19.69-34.46c1.75-3.07,6.8-3.07,8.55,0l19.69,34.46c0.87,1.52,0.86,3.4-0.01,4.91
		c-0.89,1.52-2.51,2.45-4.26,2.45h-14.48c0.75,6.65,3.49,19.33,13.37,31.33c10.98,13.35,16.53,26.71,19.03,38.77
		c16.95,1.4,33.76,4.16,50.28,8.19c-1.43-12.14-6.11-26.44-17.85-40.7c-12.02-14.6-14.97-29.85-15.67-37.58h-14.99
		c-1.75,0-3.37-0.94-4.26-2.45c-0.88-1.52-0.89-3.39-0.02-4.91l19.69-34.46c1.75-3.07,6.8-3.07,8.55,0l19.69,34.46
		c0.87,1.52,0.86,3.4-0.01,4.91c-0.89,1.52-2.51,2.45-4.26,2.45h-14.48c0.75,6.65,3.49,19.33,13.37,31.33
		c14.41,17.51,19.49,35.06,20.54,49.62c7.8,2.18,15.54,4.58,23.17,7.35c1.36,0.49,2.87,0.36,4.13-0.36
		c1.25-0.72,2.13-1.96,2.39-3.39l29.54-161.75C319.72,123.74,318.2,121.3,315.76,120.62"/>
	<rect x="23.99" y="95.13" class="st1" width="295.35" height="196.9"/>
	<polygon class="st0" points="102.78,173.96 91.58,193.57 113.98,193.57 102.78,173.96 	"/>
	<polygon class="st0" points="161.85,173.96 150.65,193.57 173.06,193.57 161.85,173.96 	"/>
</g>
</svg>
