<?xml version="1.0"?>
<svg xmlns="http://www.w3.org/2000/svg" xmlns:xlink="http://www.w3.org/1999/xlink" xmlns:svgjs="http://svgjs.com/svgjs" version="1.1" width="512" height="512" x="0" y="0" viewBox="0 0 511.9995 511.9995" style="enable-background:new 0 0 512 512" xml:space="preserve" class=""><g><path xmlns="http://www.w3.org/2000/svg" d="m452 182c-33.085938 0-60 26.914062-60 60 0 33.082031 26.914062 60 60 60 33.082031 0 60-26.917969 60-60 0-33.085938-26.917969-60-60-60zm0 90c-16.542969 0-30-13.457031-30-30s13.457031-30 30-30 30 13.457031 30 30-13.457031 30-30 30zm0 0" fill="#92abda" data-original="#000000" style="" class=""/><path xmlns="http://www.w3.org/2000/svg" d="m452 392c-33.085938 0-60 26.914062-60 60 0 33.082031 26.914062 60 60 60 33.082031 0 60-26.917969 60-60 0-33.085938-26.917969-60-60-60zm0 90c-16.542969 0-30-13.457031-30-30s13.457031-30 30-30 30 13.457031 30 30-13.457031 30-30 30zm0 0" fill="#92abda" data-original="#000000" style="" class=""/><path xmlns="http://www.w3.org/2000/svg" d="m287 422c-24.8125 0-45 20.1875-45 45s20.1875 45 45 45 45-20.1875 45-45-20.1875-45-45-45zm0 60c-8.273438 0-15-6.730469-15-15 0-8.273438 6.726562-15 15-15 8.269531 0 15 6.726562 15 15 0 8.269531-6.730469 15-15 15zm0 0" fill="#92abda" data-original="#000000" style="" class=""/><path xmlns="http://www.w3.org/2000/svg" d="m180 285c0-24.8125-20.1875-45-45-45s-45 20.1875-45 45 20.1875 45 45 45 45-20.1875 45-45zm-60 0c0-8.273438 6.726562-15 15-15 8.269531 0 15 6.726562 15 15 0 8.269531-6.730469 15-15 15-8.273438 0-15-6.730469-15-15zm0 0" fill="#92abda" data-original="#000000" style="" class=""/><path xmlns="http://www.w3.org/2000/svg" d="m238.617188 404.597656c-12.339844-8.242187-26.730469-12.597656-41.617188-12.597656-30.707031 0-57.164062 18.550781-68.753906 45.035156l-102.640625-102.640625c-5.855469-5.859375-15.355469-5.859375-21.210938 0-5.859375 5.855469-5.859375 15.355469 0 21.210938l122 122c4.296875 4.300781 10.75 5.570312 16.347657 3.253906 5.601562-2.324219 9.257812-7.792969 9.257812-13.859375 0-24.8125 20.1875-45 45-45 8.9375 0 17.566406 2.609375 24.953125 7.546875 6.886719 4.601563 16.203125 2.746094 20.804687-4.140625 4.601563-6.890625 2.746094-16.207031-4.140624-20.808594zm0 0" fill="#92abda" data-original="#000000" style="" class=""/><path xmlns="http://www.w3.org/2000/svg" d="m175.605469 154.394531c-5.855469-5.859375-15.355469-5.859375-21.210938 0-5.859375 5.855469-5.859375 15.355469 0 21.210938l212 212c5.855469 5.859375 15.355469 5.859375 21.210938 0 5.859375-5.855469 5.859375-15.355469 0-21.210938zm0 0" fill="#92abda" data-original="#000000" style="" class=""/><path xmlns="http://www.w3.org/2000/svg" d="m235.605469 4.394531c-5.855469-5.859375-15.355469-5.859375-21.210938 0-5.859375 5.855469-5.859375 15.355469 0 21.210938l152 152c5.855469 5.859375 15.355469 5.859375 21.210938 0 5.859375-5.855469 5.859375-15.355469 0-21.210938zm0 0" fill="#92abda" data-original="#000000" style="" class=""/><path xmlns="http://www.w3.org/2000/svg" d="m64.394531 235.605469c5.855469 5.859375 15.355469 5.859375 21.210938 0 5.859375-5.855469 5.859375-15.355469 0-21.210938l-60-60c-5.855469-5.859375-15.355469-5.859375-21.210938 0-5.859375 5.855469-5.859375 15.355469 0 21.210938zm0 0" fill="#92abda" data-original="#000000" style="" class=""/></g></svg>
