<?xml version="1.0" encoding="utf-8"?>
<!-- Generator: Adobe Illustrator 25.3.0, SVG Export Plug-In . SVG Version: 6.00 Build 0)  -->
<svg version="1.1" id="Calque_1" xmlns="http://www.w3.org/2000/svg" xmlns:xlink="http://www.w3.org/1999/xlink" x="0px" y="0px"
	 viewBox="0 0 342.55 368.59" style="enable-background:new 0 0 342.55 368.59;" xml:space="preserve">
<style type="text/css">
	.st0{fill:#92ABDA;}
</style>
<g>
	<path class="st0" d="M96.54,155.76h-6.13l86.55-74.18l86.55,74.18h-6.13c-2.61,0-4.73,2.12-4.73,4.73v70.75
		c-1.03,0.09-1.99,0.21-3.2,0.21c-7.92,0-11.65-1.95-15.97-4.19c-4.45-2.32-9.6-4.84-18.68-5.15v-42.69c0-2.61-2.12-4.73-4.73-4.73
		h-66.22c-2.61,0-4.73,2.12-4.73,4.73v42.68c-9.14,0.29-14.31,2.83-18.78,5.16c-4.31,2.25-8.03,4.19-15.93,4.19
		c-1.19,0-2.12-0.12-3.14-0.2v-70.75C101.27,157.88,99.15,155.76,96.54,155.76L96.54,155.76z M192.82,227.25
		c-4.31,2.25-8.03,4.19-15.94,4.19c-7.9,0-11.62-1.95-15.93-4.19c-3.3-1.72-7.02-3.56-12.38-4.54v-38.57h56.76v38.54
		C199.89,223.66,196.15,225.51,192.82,227.25L192.82,227.25z M68.16,231.45c7.9,0,11.62,1.94,15.93,4.19
		c4.73,2.47,10.09,5.27,20.32,5.27c10.22,0,15.58-2.8,20.31-5.27c4.31-2.25,8.03-4.19,15.93-4.19c7.9,0,11.62,1.94,15.93,4.19
		c4.73,2.47,10.09,5.27,20.31,5.27c10.22,0,15.59-2.8,20.32-5.27c4.31-2.25,8.03-4.19,15.94-4.19c7.92,0,11.65,1.94,15.97,4.19
		c4.73,2.47,10.1,5.27,20.34,5.27c10.24,0,15.6-2.8,20.34-5.27c4.32-2.25,8.05-4.19,15.97-4.19c2.61,0,4.73-2.12,4.73-4.73
		c0-2.61-2.12-4.73-4.73-4.73c-10.24,0-15.6,2.8-20.34,5.27c-1.11,0.58-2.19,1.13-3.31,1.65v-63.68h14.19
		c1.98,0,3.75-1.23,4.43-3.09c0.69-1.86,0.15-3.95-1.36-5.23l-99.34-85.14c-1.76-1.52-4.39-1.52-6.15,0L74.54,156.9
		c-1.51,1.28-2.05,3.37-1.36,5.23c0.68,1.86,2.45,3.09,4.43,3.09h14.19v63.69c-1.13-0.52-2.22-1.07-3.34-1.66
		c-4.73-2.47-10.09-5.27-20.31-5.27c-2.61,0-4.73,2.12-4.73,4.73C63.43,229.33,65.54,231.45,68.16,231.45L68.16,231.45z"/>
	<path class="st0" d="M285.75,259.83c-10.24,0-15.6,2.8-20.34,5.27c-4.32,2.25-8.05,4.19-15.97,4.19c-7.92,0-11.65-1.94-15.97-4.19
		c-4.73-2.47-10.1-5.27-20.34-5.27c-10.22,0-15.59,2.8-20.32,5.27c-4.31,2.25-8.03,4.19-15.94,4.19c-7.9,0-11.62-1.94-15.93-4.19
		c-4.73-2.47-10.09-5.27-20.31-5.27c-10.22,0-15.58,2.8-20.31,5.27c-4.31,2.25-8.03,4.19-15.93,4.19c-7.9,0-11.63-1.94-15.94-4.19
		c-4.73-2.47-10.09-5.27-20.31-5.27c-2.61,0-4.73,2.12-4.73,4.73c0,2.61,2.12,4.73,4.73,4.73c7.9,0,11.62,1.95,15.93,4.19
		c4.73,2.47,10.09,5.27,20.32,5.27c10.22,0,15.58-2.8,20.31-5.27c4.31-2.25,8.03-4.19,15.93-4.19c7.9,0,11.62,1.95,15.93,4.19
		c4.73,2.47,10.09,5.27,20.31,5.27c10.22,0,15.59-2.8,20.32-5.27c4.31-2.25,8.03-4.19,15.94-4.19c7.92,0,11.65,1.95,15.97,4.19
		c4.73,2.47,10.1,5.27,20.34,5.27c10.24,0,15.6-2.8,20.34-5.27c4.32-2.25,8.05-4.19,15.97-4.19c2.61,0,4.73-2.12,4.73-4.73
		C290.48,261.94,288.36,259.83,285.75,259.83L285.75,259.83z"/>
</g>
</svg>
