<?xml version="1.0" encoding="utf-8"?>
<!-- Generator: Adobe Illustrator 25.3.0, SVG Export Plug-In . SVG Version: 6.00 Build 0)  -->
<svg version="1.1" id="Calque_1" xmlns="http://www.w3.org/2000/svg" xmlns:xlink="http://www.w3.org/1999/xlink" x="0px" y="0px"
	 viewBox="0 0 342.55 368.59" style="enable-background:new 0 0 342.55 368.59;" xml:space="preserve">
<style type="text/css">
	.st0{fill:#92ABDA;}
</style>
<g>
	<path class="st0" d="M175.33,197.81c-62.49,0-111.43-27.31-111.43-62.17c0-34.86,48.94-62.16,111.43-62.16
		c62.49,0,111.43,27.3,111.43,62.16C286.76,170.5,237.81,197.81,175.33,197.81L175.33,197.81z M175.33,87.74
		c-52.67,0-97.17,21.93-97.17,47.9c0,25.97,44.5,47.9,97.17,47.9s97.17-21.93,97.17-47.9C272.5,109.67,228,87.74,175.33,87.74
		L175.33,87.74z M175.33,87.74"/>
	<path class="st0" d="M90.8,175.03c-3.28,0-6.23-2.28-6.96-5.61c-0.48-2.22-0.73-4.48-0.73-6.73c0-29.17,40.5-52.02,92.22-52.02
		c36.35,0,69.31,11.81,83.95,30.09c2.46,3.07,1.97,7.56-1.1,10.02c-3.07,2.47-7.56,1.97-10.03-1.1
		c-11.86-14.8-41.12-24.75-72.83-24.75c-46.63,0-77.96,19.52-77.96,37.76c0,1.24,0.13,2.45,0.4,3.69c0.84,3.85-1.6,7.65-5.45,8.49
		C91.82,174.97,91.31,175.03,90.8,175.03L90.8,175.03z M90.8,175.03"/>
	<path class="st0" d="M109.26,185.36c-1.44,0-2.89-0.43-4.15-1.34c-3.2-2.3-3.94-6.75-1.64-9.95c11.4-15.89,39.61-26.16,71.85-26.16
		c19.44,0,37.91,3.77,52.03,10.62c3.55,1.72,5.03,5.99,3.3,9.53c-1.72,3.55-6,5.02-9.53,3.3c-12.21-5.93-28.48-9.19-45.8-9.19
		c-26.94,0-51.72,8.31-60.26,20.21C113.68,184.32,111.48,185.36,109.26,185.36L109.26,185.36z M109.26,185.36"/>
	<path class="st0" d="M175.33,232.11c-35.45,0-65.55-11.92-74.91-29.66c-1.84-3.48-0.5-7.8,2.98-9.64s7.79-0.5,9.64,2.98
		c5.64,10.69,29.38,22.05,62.29,22.05s56.66-11.36,62.29-22.05c1.83-3.48,6.14-4.82,9.63-2.98c3.48,1.84,4.82,6.15,2.98,9.64
		C240.88,220.19,210.78,232.11,175.33,232.11L175.33,232.11z M175.33,232.11"/>
	<path class="st0" d="M175.33,263.79c-23.87,0-45.13-7.85-52.91-19.53c-2.18-3.28-1.3-7.7,1.98-9.89c3.28-2.18,7.71-1.3,9.89,1.98
		c4.25,6.38,20.08,13.17,41.04,13.17c20.96,0,36.79-6.79,41.04-13.17c2.18-3.28,6.61-4.16,9.89-1.98c3.28,2.18,4.16,6.62,1.98,9.89
		C220.46,255.94,199.2,263.79,175.33,263.79L175.33,263.79z M175.33,263.79"/>
	<path class="st0" d="M175.33,288.62c-30.51,0-47.28-32.67-65.03-67.24c-10.56-20.58-21.48-41.86-36-59.09
		c-2.53-3.01-2.16-7.51,0.86-10.05c3.01-2.54,7.51-2.16,10.05,0.86c15.56,18.47,27.37,41.47,37.78,61.77
		c16.38,31.92,30.53,59.49,52.34,59.49c3.64,0,7.04-0.71,10.39-2.18c3.6-1.58,7.81,0.06,9.39,3.67c1.58,3.61-0.07,7.81-3.68,9.39
		C186.32,287.48,180.9,288.62,175.33,288.62L175.33,288.62z M175.33,288.62"/>
</g>
</svg>
